<svg xmlns="http://www.w3.org/2000/svg" viewBox="0 0 64 64"><rect width="64" height="64" rx="14" fill="#050505"/><g transform="translate(12.50 12.16) scale(0.3968)"><path d="M28.86 10.71 L28.86 0.00 L0.00 0.00 L0.00 10.71 Z M85.85 10.71 L94.00 0.00 L57.86 0.00 L49.92 10.71 Z M28.86 28.57 L28.86 17.86 L0.00 17.86 L0.00 28.57 Z M72.26 28.57 L80.41 17.86 L44.63 17.86 L36.70 28.57 Z M58.67 46.43 L66.82 35.71 L0.00 35.71 L0.00 46.43 Z M28.86 82.14 L28.86 71.43 L0.00 71.43 L0.00 82.14 Z M39.04 71.43 L47.38 82.14 L83.73 82.14 L75.00 71.43 Z M28.86 89.29 L0.00 89.29 L0.00 100.00 L28.86 100.00 Z M61.29 100.00 L98.29 100.00 L89.55 89.29 L52.94 89.29 Z" fill="#ffffff"/><path d="M28.86 61.57 L31.36 61.57 L33.47 64.29 L69.17 64.29 L60.44 53.57 L0.00 53.57 L0.00 64.29 L28.86 64.29 Z" fill="#c4f542"/></g></svg>